#VRML V2.0 utf8
Shape { appearance Appearance { material Material { diffuseColor 0.75 0.75 0.78 } } geometry IndexedFaceSet { solid FALSE coord Coordinate { point [ -1.3189 -0.5118 0.0000, 1.3189 -0.5118 0.0000, 1.3189 0.5118 0.0000, -1.3189 0.5118 0.0000, -1.3189 -0.5118 0.5512, 1.3189 -0.5118 0.5512, 1.3189 0.5118 0.5512, -1.3189 0.5118 0.5512 ] } coordIndex [ 0 3 2 1 -1, 4 5 6 7 -1, 0 1 5 4 -1, 1 2 6 5 -1, 2 3 7 6 -1, 3 0 4 7 -1 ] } }
Shape { appearance Appearance { material Material { diffuseColor 0.1 0.1 0.1 } } geometry IndexedFaceSet { solid FALSE coord Coordinate { point [ -0.2165 -1.1024 0.0591, 0.2165 -1.1024 0.0591, 0.2165 -0.5118 0.0591, -0.2165 -0.5118 0.0591, -0.2165 -1.1024 0.4921, 0.2165 -1.1024 0.4921, 0.2165 -0.5118 0.4921, -0.2165 -0.5118 0.4921 ] } coordIndex [ 0 3 2 1 -1, 4 5 6 7 -1, 0 1 5 4 -1, 1 2 6 5 -1, 2 3 7 6 -1, 3 0 4 7 -1 ] } }
Shape { appearance Appearance { material Material { diffuseColor 0.8 0.75 0.6 } } geometry IndexedFaceSet { solid FALSE coord Coordinate { point [ -0.9843 0.5118 0.0000, -0.7874 0.5118 0.0000, -0.7874 0.9449 0.0000, -0.9843 0.9449 0.0000, -0.9843 0.5118 0.0591, -0.7874 0.5118 0.0591, -0.7874 0.9449 0.0591, -0.9843 0.9449 0.0591 ] } coordIndex [ 0 3 2 1 -1, 4 5 6 7 -1, 0 1 5 4 -1, 1 2 6 5 -1, 2 3 7 6 -1, 3 0 4 7 -1 ] } }
Shape { appearance Appearance { material Material { diffuseColor 0.8 0.75 0.6 } } geometry IndexedFaceSet { solid FALSE coord Coordinate { point [ 0.1969 0.5118 0.0000, 0.3937 0.5118 0.0000, 0.3937 0.9449 0.0000, 0.1969 0.9449 0.0000, 0.1969 0.5118 0.0591, 0.3937 0.5118 0.0591, 0.3937 0.9449 0.0591, 0.1969 0.9449 0.0591 ] } coordIndex [ 0 3 2 1 -1, 4 5 6 7 -1, 0 1 5 4 -1, 1 2 6 5 -1, 2 3 7 6 -1, 3 0 4 7 -1 ] } }
Shape { appearance Appearance { material Material { diffuseColor 0.8 0.75 0.6 } } geometry IndexedFaceSet { solid FALSE coord Coordinate { point [ 0.7874 0.5118 0.0000, 0.9843 0.5118 0.0000, 0.9843 0.9449 0.0000, 0.7874 0.9449 0.0000, 0.7874 0.5118 0.0591, 0.9843 0.5118 0.0591, 0.9843 0.9449 0.0591, 0.7874 0.9449 0.0591 ] } coordIndex [ 0 3 2 1 -1, 4 5 6 7 -1, 0 1 5 4 -1, 1 2 6 5 -1, 2 3 7 6 -1, 3 0 4 7 -1 ] } }
