#VRML V2.0 utf8
Shape { appearance Appearance { material Material { diffuseColor 0.85 0.85 0.85 } } geometry IndexedFaceSet { solid FALSE coord Coordinate { point [ -0.9252 -0.6890 0.0000, 0.9252 -0.6890 0.0000, 0.9252 0.6890 0.0000, -0.9252 0.6890 0.0000, -0.9252 -0.6890 0.6496, 0.9252 -0.6890 0.6496, 0.9252 0.6890 0.6496, -0.9252 0.6890 0.6496 ] } coordIndex [ 0 3 2 1 -1, 4 5 6 7 -1, 0 1 5 4 -1, 1 2 6 5 -1, 2 3 7 6 -1, 3 0 4 7 -1 ] } }
Shape { appearance Appearance { material Material { diffuseColor 0.08 0.08 0.08 } } geometry IndexedFaceSet { solid FALSE coord Coordinate { point [ -0.5118 -1.0827 0.1181, 0.5118 -1.0827 0.1181, 0.5118 -0.6890 0.1181, -0.5118 -0.6890 0.1181, -0.5118 -1.0827 0.5315, 0.5118 -1.0827 0.5315, 0.5118 -0.6890 0.5315, -0.5118 -0.6890 0.5315 ] } coordIndex [ 0 3 2 1 -1, 4 5 6 7 -1, 0 1 5 4 -1, 1 2 6 5 -1, 2 3 7 6 -1, 3 0 4 7 -1 ] } }
Shape { appearance Appearance { material Material { diffuseColor 0.8 0.75 0.6 } } geometry IndexedFaceSet { solid FALSE coord Coordinate { point [ -1.2795 -0.4921 0.0000, -1.0039 -0.4921 0.0000, -1.0039 -0.2953 0.0000, -1.2795 -0.2953 0.0000, -1.2795 -0.4921 0.0591, -1.0039 -0.4921 0.0591, -1.0039 -0.2953 0.0591, -1.2795 -0.2953 0.0591 ] } coordIndex [ 0 3 2 1 -1, 4 5 6 7 -1, 0 1 5 4 -1, 1 2 6 5 -1, 2 3 7 6 -1, 3 0 4 7 -1 ] } }
Shape { appearance Appearance { material Material { diffuseColor 0.8 0.75 0.6 } } geometry IndexedFaceSet { solid FALSE coord Coordinate { point [ -1.2795 0.2953 0.0000, -1.0039 0.2953 0.0000, -1.0039 0.4921 0.0000, -1.2795 0.4921 0.0000, -1.2795 0.2953 0.0591, -1.0039 0.2953 0.0591, -1.0039 0.4921 0.0591, -1.2795 0.4921 0.0591 ] } coordIndex [ 0 3 2 1 -1, 4 5 6 7 -1, 0 1 5 4 -1, 1 2 6 5 -1, 2 3 7 6 -1, 3 0 4 7 -1 ] } }
Shape { appearance Appearance { material Material { diffuseColor 0.8 0.75 0.6 } } geometry IndexedFaceSet { solid FALSE coord Coordinate { point [ 1.0039 -0.4921 0.0000, 1.2795 -0.4921 0.0000, 1.2795 -0.2953 0.0000, 1.0039 -0.2953 0.0000, 1.0039 -0.4921 0.0591, 1.2795 -0.4921 0.0591, 1.2795 -0.2953 0.0591, 1.0039 -0.2953 0.0591 ] } coordIndex [ 0 3 2 1 -1, 4 5 6 7 -1, 0 1 5 4 -1, 1 2 6 5 -1, 2 3 7 6 -1, 3 0 4 7 -1 ] } }
Shape { appearance Appearance { material Material { diffuseColor 0.8 0.75 0.6 } } geometry IndexedFaceSet { solid FALSE coord Coordinate { point [ 1.0039 0.2953 0.0000, 1.2795 0.2953 0.0000, 1.2795 0.4921 0.0000, 1.0039 0.4921 0.0000, 1.0039 0.2953 0.0591, 1.2795 0.2953 0.0591, 1.2795 0.4921 0.0591, 1.0039 0.4921 0.0591 ] } coordIndex [ 0 3 2 1 -1, 4 5 6 7 -1, 0 1 5 4 -1, 1 2 6 5 -1, 2 3 7 6 -1, 3 0 4 7 -1 ] } }
